<svg width="256" height="256" viewBox="0 0 256 256" xmlns="http://www.w3.org/2000/svg" role="img" aria-label="Todo App icon">
  <defs>
    <linearGradient id="g" x1="0" y1="0" x2="1" y2="1">
      <stop offset="0%" stop-color="#38bdf8"/>
      <stop offset="100%" stop-color="#0ea5e9"/>
    </linearGradient>
  </defs>
  <rect width="256" height="256" rx="56" fill="#0b1221"/>
  <rect x="28" y="28" width="200" height="200" rx="40" fill="url(#g)" opacity="0.18"/>
  <circle cx="128" cy="128" r="82" fill="url(#g)" opacity="0.9"/>
  <path d="M176 102c0 3-1 6-3 8l-53 57a12 12 0 0 1-9 4c-3 0-6-1-9-4l-24-26a12 12 0 0 1 18-16l15 16 44-48a12 12 0 0 1 21 9Z" fill="#0b1221"/>
  <path d="M120 172a12 12 0 0 1-9-4l-24-26a12 12 0 0 1 18-16l15 16 44-48a12 12 0 0 1 18 16l-53 57a12 12 0 0 1-9 4Z" fill="#e5f7ff"/>
</svg>
